<svg xmlns="http://www.w3.org/2000/svg" viewBox="0 0 21.26 15.1"><defs><style>.cls-1{fill:#d80000;}</style></defs><title>Asset 86</title><g id="Layer_2" data-name="Layer 2"><g id="Layer_1-2" data-name="Layer 1"><path class="cls-1" d="M3.21,1.66,5,4.69,6.82,7.75l1.79,3.07a3.19,3.19,0,0,0,.77,1,1,1,0,0,0,.82.22,1.35,1.35,0,0,0,.79-.54l.09-.13.13-.19.27-.38.53-.77L14.13,7C15.53,4.94,17,2.9,18.4.87l.11-.16A1.47,1.47,0,0,1,20.69.33a1.82,1.82,0,0,1,.21,2.41.39.39,0,0,1-.08.1q-2.34,2.89-4.51,5.93c-.74,1-1.48,2-2.19,3l-.53.76-.27.39-.13.19L13,13.4A4.28,4.28,0,0,1,10.52,15a3.38,3.38,0,0,1-2.73-.63,4.27,4.27,0,0,1-.94-1c-.29-.42-.4-.63-.55-.88-.6-1-1.23-2-1.86-3s-1.3-1.95-2-2.93c-.32-.5-.68-1-1-1.43S.77,4.23.4,3.77A2,2,0,0,1,.58,1.16a1.53,1.53,0,0,1,2.34.05A.81.81,0,0,1,3,1.39Z"/></g></g></svg>